HIERARCHY
ROOT Root
{
	OFFSET 0.00000 0.00000 0.00000
	CHANNELS 6 Xposition Yposition Zposition Zrotation Xrotation Yrotation
	JOINT Hips
	{
		OFFSET 0 0 0	
		CHANNELS 3 Zrotation Xrotation Yrotation
		JOINT Spine
		{
			OFFSET 0 4 0	
			CHANNELS 3 Zrotation Xrotation Yrotation
			JOINT Spine1
			{
				OFFSET 0 19.4 0	
				CHANNELS 3 Zrotation Xrotation Yrotation
				JOINT Spine2
				{
					OFFSET 0 16.6 0	
					CHANNELS 3 Zrotation Xrotation Yrotation
					JOINT LeftCollar
					{
						OFFSET 0 10 0	
						CHANNELS 3 Zrotation Xrotation Yrotation
						JOINT LeftArm
						{
							OFFSET 15.6 -2 3	
							CHANNELS 3 Zrotation Xrotation Yrotation
							JOINT LeftForeArm
							{
								OFFSET 3.5 -27 -1	
								CHANNELS 3 Zrotation Xrotation Yrotation
								JOINT LeftHand
								{
									OFFSET 1 -27 1	
									CHANNELS 3 Zrotation Xrotation Yrotation
									End Site
									{
										OFFSET 0 -15 0
									}
								}
							}
						}
					}
					JOINT RightCollar
					{
						OFFSET 0 10 0	
						CHANNELS 3 Zrotation Xrotation Yrotation
						JOINT RightArm
						{
							OFFSET -15.6 -2 3	
							CHANNELS 3 Zrotation Xrotation Yrotation
							JOINT RightForeArm
							{
								OFFSET -3.5 -27 -1	
								CHANNELS 3 Zrotation Xrotation Yrotation
								JOINT RightHand
								{
									OFFSET -1 -27 1	
									CHANNELS 3 Zrotation Xrotation Yrotation
									End Site
									{
										OFFSET 0 -15 0
									}
								}
							}
						}
					}
					JOINT Neck
					{
						OFFSET 0 10 0	
						CHANNELS 3 Zrotation Xrotation Yrotation
						JOINT Head
						{
							OFFSET 0 12.7 3	
							CHANNELS 3 Zrotation Xrotation Yrotation
							End Site
							{
								OFFSET 0 12.7 3
							}
						}
					}
				}
			}
		}
	}
	JOINT LeftHip
	{
		OFFSET 0 0 0	
		CHANNELS 3 Zrotation Xrotation Yrotation
		JOINT LeftUpLeg
		{
			OFFSET 8.8 -6 0	
			CHANNELS 3 Zrotation Xrotation Yrotation
			JOINT LeftLeg
			{
				OFFSET 0 -39 2	
				CHANNELS 3 Zrotation Xrotation Yrotation
				JOINT LeftFoot
				{
					OFFSET 0 -43 -2	
					CHANNELS 3 Zrotation Xrotation Yrotation
					JOINT LeftFootFront
					{
						OFFSET 0 -7 8.5	
						CHANNELS 3 Zrotation Xrotation Yrotation
						End Site
						{
							OFFSET 0 -0.5 9
						}
					}
				}
				JOINT LeftHeel
				{
					OFFSET 0 -43 -2	
					CHANNELS 3 Zrotation Xrotation Yrotation
					End Site
					{
						OFFSET 0 -7.5 -5
					}
				}
			}
		}
	}
	JOINT RightHip
	{
		OFFSET 0 0 0	
		CHANNELS 3 Zrotation Xrotation Yrotation
		JOINT RightUpLeg
		{
			OFFSET -8.8 -6 0	
			CHANNELS 3 Zrotation Xrotation Yrotation
			JOINT RightLeg
			{
				OFFSET 0 -39 2	
				CHANNELS 3 Zrotation Xrotation Yrotation
				JOINT RightFoot
				{
					OFFSET 0 -43 -2	
					CHANNELS 3 Zrotation Xrotation Yrotation
					JOINT RightFootFront
					{
						OFFSET 0 -7 8.5	
						CHANNELS 3 Zrotation Xrotation Yrotation
						End Site
						{
							OFFSET 0 -0.5 9
						}
					}
				}
				JOINT RightHeel
				{
					OFFSET 0 -43 -2	
					CHANNELS 3 Zrotation Xrotation Yrotation
					End Site
					{
						OFFSET 0 -7.5 -5
					}
				}
			}
		}
	}
}
MOTION
Frames: 24
Frame Time: 0.05
0 95.5 0 -0 0 -0 -0 0 -0 -0 0 -0 -21.861 33.202 34.168 -0 0 -0 -0 0 -0 -48.64 -67.181 -65.063 -178.6 -49.874 -172.81 -0 0 -0 -0 0 -0 -4.2281 -35.525 50.46 81.58 -20.267 14.066 -0 0 -0 9.4547 -28.998 19.99 9.4547 -28.998 19.99 -0 0 -0 -0 0 -0 -0 0 -0 -0 0 -0 -0 0 -0 -0 0 -0 -0 0 -0 -0 0 -0 -0 0 -0 -0 0 -0 -0 0 -0 -0 0 -0 
0 95.5 0 -0 0 -0 -0 0 -0 -0 0 -0 -21.796 33.148 34.093 -0 0 -0 -0 0 -0 -48.478 -67.181 -64.787 -178.61 -49.882 -172.77 -0 0 -0 -0 0 -0 -4.1709 -35.481 50.519 81.575 -20.244 13.999 -0 0 -0 9.4987 -29.033 19.993 9.4987 -29.033 19.993 -0 0 -0 -0 0 -0 -0 0 -0 -0 0 -0 -0 0 -0 -0 0 -0 -0 0 -0 -0 0 -0 -0 0 -0 -0 0 -0 -0 0 -0 -0 0 -0 
0 95.5 0 -0 0 -0 -0 0 -0 -0 0 -0 -21.721 33.036 34.023 -0 0 -0 -0 0 -0 -48.182 -67.134 -64.417 -178.65 -49.85 -172.76 -0 0 -0 -0 0 -0 -4.0755 -35.392 50.602 81.572 -20.24 13.91 -0 0 -0 9.611 -29.118 19.995 9.611 -29.118 19.995 -0 0 -0 -0 0 -0 -0 0 -0 -0 0 -0 -0 0 -0 -0 0 -0 -0 0 -0 -0 0 -0 -0 0 -0 -0 0 -0 -0 0 -0 -0 0 -0 
0 95.5 0 -0 0 -0 -0 0 -0 -0 0 -0 -21.654 32.986 33.931 -0 0 -0 -0 0 -0 -47.967 -67.168 -64.162 -178.71 -49.823 -172.76 -0 0 -0 -0 0 -0 -3.9893 -35.358 50.712 81.573 -20.231 13.819 -0 0 -0 9.7546 -29.299 20.051 9.7546 -29.299 20.051 -0 0 -0 -0 0 -0 -0 0 -0 -0 0 -0 -0 0 -0 -0 0 -0 -0 0 -0 -0 0 -0 -0 0 -0 -0 0 -0 -0 0 -0 -0 0 -0 
0 95.5 0 -0 0 -0 -0 0 -0 -0 0 -0 -21.682 32.94 33.901 -0 0 -0 -0 0 -0 -47.737 -67.217 -64.008 -178.68 -49.814 -172.65 -0 0 -0 -0 0 -0 -3.8822 -35.364 50.823 81.58 -20.263 13.752 -0 0 -0 9.9271 -29.529 20.112 9.9271 -29.529 20.112 -0 0 -0 -0 0 -0 -0 0 -0 -0 0 -0 -0 0 -0 -0 0 -0 -0 0 -0 -0 0 -0 -0 0 -0 -0 0 -0 -0 0 -0 -0 0 -0 
0 95.5 0 -0 0 -0 -0 0 -0 -0 0 -0 -21.711 32.892 33.857 -0 0 -0 -0 0 -0 -47.513 -67.289 -63.888 -178.62 -49.867 -172.55 -0 0 -0 -0 0 -0 -3.7174 -35.4 50.95 81.588 -20.257 13.647 -0 0 -0 10.055 -29.645 20.129 10.055 -29.645 20.129 -0 0 -0 -0 0 -0 -0 0 -0 -0 0 -0 -0 0 -0 -0 0 -0 -0 0 -0 -0 0 -0 -0 0 -0 -0 0 -0 -0 0 -0 -0 0 -0 
0 95.5 0 -0 0 -0 -0 0 -0 -0 0 -0 -21.726 32.912 33.843 -0 0 -0 -0 0 -0 -47.455 -67.363 -63.888 -178.55 -49.94 -172.43 -0 0 -0 -0 0 -0 -3.6277 -35.477 51.025 81.581 -20.256 13.594 -0 0 -0 10.063 -29.664 20.086 10.062 -29.664 20.086 -0 0 -0 -0 0 -0 -0 0 -0 -0 0 -0 -0 0 -0 -0 0 -0 -0 0 -0 -0 0 -0 -0 0 -0 -0 0 -0 -0 0 -0 -0 0 -0 
0 95.5 0 -0 0 -0 -0 0 -0 -0 0 -0 -21.716 32.94 33.828 -0 0 -0 -0 0 -0 -47.418 -67.408 -63.868 -178.46 -50.023 -172.32 -0 0 -0 -0 0 -0 -3.619 -35.52 51.076 81.607 -20.281 13.617 -0 0 -0 10.025 -29.626 20.029 10.025 -29.626 20.029 -0 0 -0 -0 0 -0 -0 0 -0 -0 0 -0 -0 0 -0 -0 0 -0 -0 0 -0 -0 0 -0 -0 0 -0 -0 0 -0 -0 0 -0 -0 0 -0 
0 95.5 0 -0 0 -0 -0 0 -0 -0 0 -0 -21.675 32.954 33.817 -0 0 -0 -0 0 -0 -47.454 -67.418 -63.867 -178.42 -50.086 -172.25 -0 0 -0 -0 0 -0 -3.676 -35.519 51.052 81.649 -20.278 13.672 -0 0 -0 9.9832 -29.58 19.977 9.9832 -29.58 19.977 -0 0 -0 -0 0 -0 -0 0 -0 -0 0 -0 -0 0 -0 -0 0 -0 -0 0 -0 -0 0 -0 -0 0 -0 -0 0 -0 -0 0 -0 -0 0 -0 
0 95.5 0 -0 0 -0 -0 0 -0 -0 0 -0 -21.687 32.985 33.807 -0 0 -0 -0 0 -0 -47.424 -67.442 -63.838 -178.4 -50.09 -172.18 -0 0 -0 -0 0 -0 -3.7278 -35.534 51.039 81.679 -20.287 13.72 -0 0 -0 9.9591 -29.565 19.954 9.9591 -29.565 19.954 -0 0 -0 -0 0 -0 -0 0 -0 -0 0 -0 -0 0 -0 -0 0 -0 -0 0 -0 -0 0 -0 -0 0 -0 -0 0 -0 -0 0 -0 -0 0 -0 
0 95.5 0 -0 0 -0 -0 0 -0 -0 0 -0 -21.712 33.032 33.797 -0 0 -0 -0 0 -0 -47.38 -67.451 -63.779 -178.33 -50.052 -172.06 -0 0 -0 -0 0 -0 -3.7941 -35.548 51.018 81.705 -20.3 13.753 -0 0 -0 9.9328 -29.543 19.944 9.9328 -29.543 19.944 -0 0 -0 -0 0 -0 -0 0 -0 -0 0 -0 -0 0 -0 -0 0 -0 -0 0 -0 -0 0 -0 -0 0 -0 -0 0 -0 -0 0 -0 -0 0 -0 
0 95.5 0 -0 0 -0 -0 0 -0 -0 0 -0 -21.697 33.047 33.798 -0 0 -0 -0 0 -0 -47.413 -67.411 -63.719 -178.3 -50 -171.97 -0 0 -0 -0 0 -0 -3.8767 -35.519 50.967 81.714 -20.312 13.763 -0 0 -0 9.8949 -29.475 19.923 9.8949 -29.475 19.923 -0 0 -0 -0 0 -0 -0 0 -0 -0 0 -0 -0 0 -0 -0 0 -0 -0 0 -0 -0 0 -0 -0 0 -0 -0 0 -0 -0 0 -0 -0 0 -0 
0 95.5 0 -0 0 -0 -0 0 -0 -0 0 -0 -21.701 33.07 33.865 -0 0 -0 -0 0 -0 -47.525 -67.344 -63.77 -178.35 -49.945 -171.97 -0 0 -0 -0 0 -0 -3.9784 -35.495 50.864 81.697 -20.337 13.756 -0 0 -0 9.8392 -29.412 19.884 9.8392 -29.412 19.884 -0 0 -0 -0 0 -0 -0 0 -0 -0 0 -0 -0 0 -0 -0 0 -0 -0 0 -0 -0 0 -0 -0 0 -0 -0 0 -0 -0 0 -0 -0 0 -0 
0 95.5 0 -0 0 -0 -0 0 -0 -0 0 -0 -21.751 33.132 33.912 -0 0 -0 -0 0 -0 -47.722 -67.338 -63.917 -178.38 -49.945 -171.97 -0 0 -0 -0 0 -0 -4.0345 -35.536 50.828 81.682 -20.369 13.73 -0 0 -0 9.8164 -29.395 19.887 9.8164 -29.395 19.887 -0 0 -0 -0 0 -0 -0 0 -0 -0 0 -0 -0 0 -0 -0 0 -0 -0 0 -0 -0 0 -0 -0 0 -0 -0 0 -0 -0 0 -0 -0 0 -0 
0 95.5 0 -0 0 -0 -0 0 -0 -0 0 -0 -21.842 33.295 33.93 -0 0 -0 -0 0 -0 -48.073 -67.484 -64.234 -178.43 -49.913 -172 -0 0 -0 -0 0 -0 -4.0751 -35.707 50.843 81.665 -20.389 13.671 -0 0 -0 9.8023 -29.444 19.919 9.8023 -29.444 19.919 -0 0 -0 -0 0 -0 -0 0 -0 -0 0 -0 -0 0 -0 -0 0 -0 -0 0 -0 -0 0 -0 -0 0 -0 -0 0 -0 -0 0 -0 -0 0 -0 
0 95.5 0 -0 0 -0 -0 0 -0 -0 0 -0 -21.883 33.297 33.93 -0 0 -0 -0 0 -0 -48.043 -67.488 -64.237 -178.42 -49.898 -171.98 -0 0 -0 -0 0 -0 -4.0549 -35.75 50.858 81.63 -20.427 13.697 -0 0 -0 9.8102 -29.449 19.898 9.8102 -29.449 19.898 -0 0 -0 -0 0 -0 -0 0 -0 -0 0 -0 -0 0 -0 -0 0 -0 -0 0 -0 -0 0 -0 -0 0 -0 -0 0 -0 -0 0 -0 -0 0 -0 
0 95.5 0 -0 0 -0 -0 0 -0 -0 0 -0 -21.88 33.312 33.916 -0 0 -0 -0 0 -0 -48.03 -67.499 -64.241 -178.45 -49.941 -171.94 -0 0 -0 -0 0 -0 -4.0439 -35.791 50.882 81.589 -20.452 13.703 -0 0 -0 9.7698 -29.438 19.861 9.7698 -29.438 19.861 -0 0 -0 -0 0 -0 -0 0 -0 -0 0 -0 -0 0 -0 -0 0 -0 -0 0 -0 -0 0 -0 -0 0 -0 -0 0 -0 -0 0 -0 -0 0 -0 
0 95.5 0 -0 0 -0 -0 0 -0 -0 0 -0 -21.874 33.355 33.933 -0 0 -0 -0 0 -0 -48.045 -67.518 -64.25 -178.43 -49.962 -171.86 -0 0 -0 -0 0 -0 -4.0602 -35.83 50.901 81.56 -20.49 13.68 -0 0 -0 9.6888 -29.432 19.816 9.6888 -29.432 19.816 -0 0 -0 -0 0 -0 -0 0 -0 -0 0 -0 -0 0 -0 -0 0 -0 -0 0 -0 -0 0 -0 -0 0 -0 -0 0 -0 -0 0 -0 -0 0 -0 
0 95.5 0 -0 0 -0 -0 0 -0 -0 0 -0 -21.836 33.382 33.951 -0 0 -0 -0 0 -0 -48.076 -67.519 -64.256 -178.39 -49.997 -171.78 -0 0 -0 -0 0 -0 -4.1247 -35.839 50.874 81.587 -20.508 13.657 -0 0 -0 9.6207 -29.403 19.772 9.6207 -29.403 19.772 -0 0 -0 -0 0 -0 -0 0 -0 -0 0 -0 -0 0 -0 -0 0 -0 -0 0 -0 -0 0 -0 -0 0 -0 -0 0 -0 -0 0 -0 -0 0 -0 
0 95.5 0 -0 0 -0 -0 0 -0 -0 0 -0 -21.864 33.388 33.936 -0 0 -0 -0 0 -0 -47.969 -67.586 -64.179 -178.39 -50.029 -171.73 -0 0 -0 -0 0 -0 -4.1088 -35.875 50.912 81.643 -20.525 13.662 -0 0 -0 9.6501 -29.388 19.779 9.6501 -29.388 19.779 -0 0 -0 -0 0 -0 -0 0 -0 -0 0 -0 -0 0 -0 -0 0 -0 -0 0 -0 -0 0 -0 -0 0 -0 -0 0 -0 -0 0 -0 -0 0 -0 
0 95.5 0 -0 0 -0 -0 0 -0 -0 0 -0 -21.876 33.38 33.905 -0 0 -0 -0 0 -0 -47.866 -67.635 -64.103 -178.38 -50.069 -171.68 -0 0 -0 -0 0 -0 -4.0955 -35.893 50.936 81.702 -20.527 13.681 -0 0 -0 9.7009 -29.358 19.789 9.7009 -29.358 19.789 -0 0 -0 -0 0 -0 -0 0 -0 -0 0 -0 -0 0 -0 -0 0 -0 -0 0 -0 -0 0 -0 -0 0 -0 -0 0 -0 -0 0 -0 -0 0 -0 
0 95.5 0 -0 0 -0 -0 0 -0 -0 0 -0 -21.88 33.388 33.888 -0 0 -0 -0 0 -0 -47.863 -67.666 -64.109 -178.37 -50.13 -171.62 -0 0 -0 -0 0 -0 -4.1238 -35.919 50.922 81.754 -20.528 13.721 -0 0 -0 9.7177 -29.341 19.782 9.7177 -29.341 19.782 -0 0 -0 -0 0 -0 -0 0 -0 -0 0 -0 -0 0 -0 -0 0 -0 -0 0 -0 -0 0 -0 -0 0 -0 -0 0 -0 -0 0 -0 -0 0 -0 
0 95.5 0 -0 0 -0 -0 0 -0 -0 0 -0 -21.88 33.385 33.875 -0 0 -0 -0 0 -0 -47.834 -67.648 -64.085 -178.32 -50.185 -171.55 -0 0 -0 -0 0 -0 -4.1418 -35.922 50.922 81.779 -20.54 13.735 -0 0 -0 9.7142 -29.326 19.77 9.7142 -29.326 19.77 -0 0 -0 -0 0 -0 -0 0 -0 -0 0 -0 -0 0 -0 -0 0 -0 -0 0 -0 -0 0 -0 -0 0 -0 -0 0 -0 -0 0 -0 -0 0 -0 
0 95.5 0 -0 0 -0 -0 0 -0 -0 0 -0 -21.887 33.388 33.886 -0 0 -0 -0 0 -0 -47.842 -67.631 -64.075 -178.28 -50.188 -171.47 -0 0 -0 -0 0 -0 -4.1849 -35.913 50.907 81.799 -20.568 13.741 -0 0 -0 9.6885 -29.312 19.762 9.6885 -29.312 19.762 -0 0 -0 -0 0 -0 -0 0 -0 -0 0 -0 -0 0 -0 -0 0 -0 -0 0 -0 -0 0 -0 -0 0 -0 -0 0 -0 -0 0 -0 -0 0 -0 
